<?xml version="1.0" standalone="no"?><!DOCTYPE svg PUBLIC "-//W3C//DTD SVG 1.1//EN" "http://www.w3.org/Graphics/SVG/1.1/DTD/svg11.dtd"><svg t="1769521741616" class="icon" viewBox="0 0 1024 1024" version="1.1" xmlns="http://www.w3.org/2000/svg" p-id="14635" xmlns:xlink="http://www.w3.org/1999/xlink" width="200" height="200"><path d="M512 0C229.248 0 0 229.248 0 512s229.248 512 512 512 512-229.248 512-512S794.752 0 512 0z m0 981.333333C252.8 981.333333 42.666667 771.157333 42.666667 512S252.842667 42.666667 512 42.666667s469.333333 210.133333 469.333333 469.333333-210.133333 469.333333-469.333333 469.333333z m436.010667-469.333333c0 205.013333-141.525333 376.874667-332.202667 423.466667-11.52-22.229333-22.613333-43.392-31.957333-61.354667 27.52 10.624 82.346667 30.634667 94.208 26.24 16.042667-6.144 12.032-134.357333-5.973334-138.453333-14.421333-3.2-69.632 35.712-91.349333 51.584l1.450667 6.656c3.328 16.938667 6.144 42.368 1.28 53.205333-0.042667 0.170667-0.085333 0.426667-0.170667 0.554667a9.301333 9.301333 0 0 1-2.901333 3.754666c-12.117333 8.021333-46.122667 12.117333-64.128 8.021334a22.016 22.016 0 0 1-2.730667-0.853334c-29.610667 16.896-85.76 47.317333-96 41.429334-14.037333-8.021333-16.085333-114.176-14.037333-140.288 1.493333-19.626667 70.528 12.202667 104.192 28.970666 7.424-6.954667 25.685333-11.605333 41.813333-13.226666-24.32-59.264-42.24-127.018667-31.274667-175.146667 0 0.085333 0.085333 0.085333 0.085334 0.085333 15.189333 10.581333 116.48 44.8 166.826666 43.818667 50.346667-1.024 132.864-31.701333 123.861334-56.448-9.045333-24.746667-91.093333 21.76-176.725334 13.824-63.402667-5.888-74.581333-34.304-60.586666-55.04 17.664-26.069333 49.834667 4.949333 102.869333-10.922667 53.12-15.829333 127.445333-44.16 154.965333-59.605333 63.744-35.541333-26.666667-50.218667-48-40.405333-20.224 9.386667-90.581333 27.178667-123.264 34.986666 18.261333-64.682667-25.728-177.024-74.965333-226.133333-16.042667-16.042667-40.576-26.112-68.394667-31.402667-10.666667-14.677333-27.904-28.629333-52.266666-41.685333a246.272 246.272 0 0 0-153.386667-24.917333l-1.024 0.170666-1.450667 0.170667 0.170667 0.085333c-6.314667 1.194667-10.112 3.413333-15.232 4.181334 6.314667 0.682667 30.08 11.776 45.098667 17.834666-7.424 2.901333-17.578667 4.608-25.429334 7.850667a35.328 35.328 0 0 0-8.704 2.389333c-7.381333 3.413333-12.928 16-12.8 21.973334 35.84-3.669333 88.832-1.109333 127.616 10.496-27.477333 3.84-52.693333 11.008-70.869333 20.565333-0.682667 0.341333-1.28 0.768-2.048 1.194667-2.304 0.853333-4.522667 1.792-6.485333 2.816-58.325333 30.72-84.096 102.613333-68.736 188.757333 13.781333 77.824 71.04 345.088 97.706666 472.064-169.514667-59.733333-291.072-221.269333-291.072-411.264C75.989333 271.189333 271.189333 75.989333 512 75.989333S948.010667 271.189333 948.010667 512zM388.053333 408.789333a32.341333 32.341333 0 1 0 0 64.682667 32.341333 32.341333 0 0 0 0-64.682667z m14.421334 29.952a8.362667 8.362667 0 1 1 0-16.725333 8.362667 8.362667 0 0 1 0 16.725333z m201.557333-44.501333a27.733333 27.733333 0 1 0 0 55.424 27.733333 27.733333 0 0 0 0-55.466667z m12.373333 25.642667a7.168 7.168 0 1 1 0-14.336 7.168 7.168 0 0 1 0 14.336zM397.354667 347.562667s-24.362667-11.093333-48 3.84c-23.637333 14.848-22.784 30.037333-22.784 30.037333s-12.544-27.989333 20.906666-41.728c33.536-13.653333 49.92 7.850667 49.92 7.850667z m223.402666-2.218667s-17.493333-9.984-31.146666-9.813333c-27.904 0.341333-35.456 12.629333-35.456 12.629333s4.693333-29.354667 40.32-23.466667a35.84 35.84 0 0 1 26.282666 20.650667z" p-id="14636" fill="#717A95"></path></svg>