<svg xmlns="http://www.w3.org/2000/svg" viewBox="0 0 1024 1024">
  <path
    fill="#717A95"
    d="M512 96c229.696 0 416 186.304 416 416S741.696 928 512 928 96 741.696 96 512 282.304 96 512 96z m0 64c-79.744 0-150.72 49.856-193.28 126.72h386.56C662.72 209.856 591.744 160 512 160z m-225.408 190.72C266.112 396.992 256 453.376 256 512s10.112 115.008 30.592 161.28h147.904c-10.944-52.992-18.496-106.88-18.496-161.28s7.552-108.288 18.496-161.28H286.592zM500.224 350.72C487.424 402.56 480 456.32 480 512s7.424 109.44 20.224 161.28h23.552C536.576 621.44 544 567.68 544 512s-7.424-109.44-20.224-161.28h-23.552z m89.28 0C600.448 403.712 608 457.6 608 512s-7.552 108.288-18.496 161.28h147.904C757.888 627.008 768 570.624 768 512s-10.112-115.008-30.592-161.28H589.504zM318.72 737.28C361.28 814.144 432.256 864 512 864s150.72-49.856 193.28-126.72H318.72z"
  />
</svg>
