<?xml version="1.0" standalone="no"?><!DOCTYPE svg PUBLIC "-//W3C//DTD SVG 1.1//EN" "http://www.w3.org/Graphics/SVG/1.1/DTD/svg11.dtd"><svg t="1770194532110" class="icon" viewBox="0 0 1024 1024" version="1.1" xmlns="http://www.w3.org/2000/svg" p-id="18527" xmlns:xlink="http://www.w3.org/1999/xlink" width="128" height="128"><path d="M512 0C230.4 0 0 230.4 0 512s230.4 512 512 512 512-230.4 512-512S796.192 0 512 0z m235.616 739.808c-10.208 15.392-28.192 20.384-43.616 10.208-120.384-74.208-271.392-89.6-450.592-48.608-18.016 5.216-33.184-7.616-38.4-23.008-5.184-18.016 7.584-33.216 23.008-38.4 194.592-43.616 363.616-25.6 496.608 56.384 18.016 7.616 20.608 28 12.992 43.392z m61.376-140.8c-12.8 18.016-35.808 25.6-53.792 12.8-138.208-84.384-348.192-110.016-509.408-58.784-20.416 5.216-43.584-5.216-48.608-25.6-5.184-20.384 5.184-43.616 25.6-48.608 186.816-56.384 417.184-28.192 576 69.216 15.2 7.616 23.008 33.216 10.208 51.008z m5.024-143.392c-163.808-97.184-437.792-107.616-594.016-58.816-25.6 7.616-51.2-7.616-58.816-30.816-7.584-25.6 7.584-51.2 30.816-58.816 181.792-53.792 481.216-43.616 670.784 69.184 23.008 12.8 30.784 43.616 18.016 66.592-12.992 17.792-43.616 25.408-66.784 12.608z" p-id="18528" fill="#717A95"></path></svg>